<svg version="1.0" xmlns="http://www.w3.org/2000/svg"
 width="190.000000pt" height="200.000000pt" viewBox="0 0 190.000000 200.000000"
 preserveAspectRatio="xMidYMid meet">
<metadata>
Created by potrace 1.16, written by Peter Selinger 2001-2019
</metadata>
<g transform="translate(0.000000,200.000000) scale(0.100000,-0.100000)"
fill="#000000" stroke="none">
<path d="M0 1000 l0 -1000 950 0 950 0 0 1000 0 1000 -950 0 -950 0 0 -1000z
m1566 684 c66 -31 64 -12 64 -684 0 -672 2 -653 -64 -684 -30 -14 -103 -16
-618 -16 -549 0 -585 1 -618 19 -23 12 -39 30 -47 52 -17 48 -17 1210 0 1258
8 22 24 40 47 52 33 18 69 19 618 19 515 0 588 -2 618 -16z"/>
<path d="M571 1407 c-34 -17 -65 -71 -57 -102 3 -13 18 -37 32 -52 22 -24 34
-28 77 -28 56 0 88 21 107 71 12 31 -8 85 -41 108 -28 19 -84 21 -118 3z"/>
<path d="M1111 1149 c-18 -6 -47 -23 -65 -40 l-31 -29 -3 35 -3 36 -97 -3 -97
-3 -3 -282 -2 -283 100 0 100 0 0 170 c0 136 3 176 16 204 17 35 49 56 85 56
33 0 79 -29 89 -56 6 -14 10 -104 10 -200 l0 -174 101 0 100 0 -3 213 c-4 193
-6 216 -25 253 -46 87 -167 133 -272 103z"/>
<path d="M525 1137 c-3 -7 -4 -134 -3 -282 l3 -270 98 -3 97 -3 0 286 0 285
-95 0 c-68 0 -97 -4 -100 -13z"/>
</g>
</svg>