<svg width="748" height="223" viewBox="0 0 748 223" fill="none" xmlns="http://www.w3.org/2000/svg">
<mask id="mask0_13167_22379" style="mask-type:alpha" maskUnits="userSpaceOnUse" x="-1" y="75" width="166" height="148">
<path d="M162.568 140.244C165.699 145.662 165.699 152.337 162.568 157.755L130.102 213.943C126.971 219.361 121.185 222.698 114.924 222.698H49.9913C43.7299 222.698 37.9442 219.361 34.8136 213.943L2.347 157.755C-0.783649 152.337 -0.78363 145.662 2.34702 140.244L34.8136 84.0564C37.9442 78.6384 43.7299 75.3008 49.9913 75.3008H114.924C121.185 75.3008 126.971 78.6384 130.102 84.0564L162.568 140.244Z" fill="#D9D9D9"/>
</mask>
<g mask="url(#mask0_13167_22379)">
<g filter="url(#filter0_f_13167_22379)">
<path d="M121.575 165.329C188.126 133.5 68.6395 -97.2697 87.9904 -21.6987C100.554 27.3664 56.7061 20.0303 61.1511 47.1109C64.2648 66.0797 64.968 80.5106 62.6744 91.6018C59.9107 104.967 59.1291 127.607 65.6168 139.617C76.8212 160.359 84.903 182.868 121.575 165.329Z" fill="#D6FFF4"/>
</g>
<g filter="url(#filter1_f_13167_22379)">
<path d="M-32.17 44.2874C-19.9246 45.5732 -3.27431 50.2026 20.7027 60.6125C77.9649 85.4736 84.1767 184.717 49.372 215.259C15.8675 244.659 -213.603 195.72 -184.388 193.379C-42.3946 182 3.52296 157.888 -45.593 102.157C-57.4263 88.7297 -49.9773 42.4177 -32.17 44.2874Z" fill="#84DBFF"/>
</g>
<g filter="url(#filter2_f_13167_22379)">
<path d="M155.417 301.712C216.356 272.567 106.946 61.2583 124.665 130.456C136.169 175.384 96.0191 168.666 100.089 193.463C102.705 209.399 103.462 221.837 101.948 231.625C99.8609 245.112 99.0343 268.415 105.413 280.482C115.081 298.771 123.199 317.122 155.417 301.712Z" fill="#B0009A"/>
</g>
<g filter="url(#filter3_f_13167_22379)">
<path d="M173.369 95.1794C146.949 59.7236 37.6331 149.715 76.1327 131.647C101.129 119.917 103.125 145.866 117.261 140.827C120.359 139.723 123.248 138.794 125.948 138.051C139.612 134.287 171.608 130.533 178.564 118.194C181.607 112.798 181.379 105.929 173.369 95.1794Z" fill="#FF4CE9"/>
</g>
<g filter="url(#filter4_f_13167_22379)">
<path d="M148.495 183.422C123.67 141.37 -84.2003 256.037 -17.0442 232.27C26.5574 216.84 18.0944 248.397 42.0443 241.615C58.341 237.001 70.7778 234.554 80.2928 234.5C92.2581 234.433 110.263 233.59 120.576 227.526C139.975 216.12 162.857 207.75 148.495 183.422Z" fill="#1C38FF"/>
</g>
<path d="M-12.9248 71.2866C-12.9248 61.6154 -5.07832 53.7754 4.6008 53.7754H150.102C159.781 53.7754 167.627 61.6154 167.627 71.2866V224.732C167.627 234.403 159.781 242.243 150.102 242.243H4.60081C-5.07832 242.243 -12.9248 234.403 -12.9248 224.732V71.2866Z" fill="white"/>
</g>
<mask id="mask1_13167_22379" style="mask-type:alpha" maskUnits="userSpaceOnUse" x="-1" y="75" width="166" height="148">
<path d="M162.568 140.244C165.699 145.662 165.699 152.337 162.568 157.755L130.102 213.943C126.971 219.361 121.185 222.698 114.924 222.698H49.9913C43.7299 222.698 37.9442 219.361 34.8136 213.943L2.347 157.755C-0.783649 152.337 -0.78363 145.662 2.34702 140.244L34.8136 84.0564C37.9442 78.6384 43.7299 75.3008 49.9913 75.3008H114.924C121.185 75.3008 126.971 78.6384 130.102 84.0564L162.568 140.244Z" fill="#D9D9D9"/>
</mask>
<g mask="url(#mask1_13167_22379)">
<g filter="url(#filter5_f_13167_22379)">
<path d="M121.573 165.325C188.124 133.496 68.637 -97.2736 87.9874 -21.7026C100.551 27.3627 56.7036 20.0264 61.1486 47.1072C67.4477 85.4851 63.8809 105.288 45.5908 116.438C75.3522 131.842 68.332 190.789 121.573 165.325Z" fill="#D6FFF4"/>
</g>
<g filter="url(#filter6_f_13167_22379)">
<path d="M-94.0212 58.8637C-56.0944 63.8226 -69.2058 21.579 20.7027 60.6136C77.9649 85.4747 84.1767 184.719 49.372 215.26C15.8675 244.66 -213.603 195.722 -184.388 193.38C-10.0075 179.405 19.4713 146.227 -94.0212 58.8637Z" fill="#00AAF0"/>
</g>
<g filter="url(#filter7_f_13167_22379)">
<path d="M155.419 301.704C216.357 272.559 106.947 61.2505 124.666 130.449C136.17 175.376 96.0203 168.658 100.091 193.456C105.859 228.597 102.592 246.73 85.8447 256.939C113.096 271.045 106.668 325.02 155.419 301.704Z" fill="#B0009A"/>
</g>
<g filter="url(#filter8_f_13167_22379)">
<path d="M173.368 95.1735C146.947 59.7177 37.632 149.709 76.1318 131.642C101.128 119.911 103.124 145.86 117.26 140.821C137.294 133.679 148.563 133.924 157.132 143.449C161.453 124.882 194.504 123.538 173.368 95.1735Z" fill="#F900DA"/>
</g>
<g filter="url(#filter9_f_13167_22379)">
<path d="M148.491 183.421C123.665 141.368 -84.204 256.035 -17.0482 232.268C26.5533 216.838 18.0904 248.395 42.0403 241.613C75.9815 232.003 93.1786 231.795 102.108 243.025C116.993 220.188 168.351 217.062 148.491 183.421Z" fill="#1C38FF"/>
</g>
<path d="M168.467 26.0547H-54.2314V253.582H168.467V26.0547Z" fill="#090F1D"/>
</g>
<path fill-rule="evenodd" clip-rule="evenodd" d="M46.8312 173.739C45.6101 173.739 44.3814 173.35 43.3435 172.557C40.8402 170.628 40.3671 167.036 42.2979 164.535L65.1399 134.872C66.0712 133.659 67.4523 132.874 68.9634 132.683C70.505 132.485 72.0161 132.912 73.2142 133.866L94.7358 150.756L113.564 126.484C115.502 123.975 119.089 123.51 121.592 125.462C124.096 127.399 124.554 130.991 122.615 133.484L100.254 162.308C99.3226 163.514 97.9489 164.299 96.4379 164.482C94.9118 164.688 93.4007 164.245 92.1945 163.308L70.6884 146.425L51.3722 171.505C50.2425 172.969 48.5485 173.739 46.8312 173.739Z" fill="white"/>
<path d="M235.287 186.499H216.768L244.986 104.825H267.257L295.436 186.499H276.916L256.441 123.489H255.803L235.287 186.499ZM234.13 154.396H277.874V167.875H234.13V154.396ZM322.557 104.825V186.499H305.275V104.825H322.557ZM372.059 100.996L345.717 198.782H331.068L357.411 100.996H372.059ZM380.571 104.825H401.884L424.395 159.7H425.353L447.864 104.825H469.178V186.499H452.414V133.339H451.736L430.582 186.1H419.167L398.013 133.14H397.334V186.499H380.571V104.825ZM483.416 186.499V104.825H500.699V172.262H535.743V186.499H483.416ZM587.292 186.499H568.77L596.989 104.825H619.259L647.44 186.499H628.918L608.445 123.489H607.807L587.292 186.499ZM586.133 154.396H629.875V167.875H586.133V154.396ZM657.278 186.499V104.825H689.526C695.728 104.825 701.011 106.008 705.374 108.374C709.736 110.714 713.063 113.97 715.352 118.145C717.665 122.292 718.824 127.078 718.824 132.502C718.824 137.925 717.655 142.711 715.31 146.859C712.969 151.006 709.577 154.236 705.134 156.55C700.715 158.862 695.367 160.019 689.09 160.019H668.532V146.18H686.294C689.62 146.18 692.36 145.609 694.518 144.466C696.699 143.296 698.322 141.687 699.387 139.64C700.476 137.566 701.025 135.187 701.025 132.502C701.025 129.79 700.476 127.423 699.387 125.403C698.322 123.355 696.699 121.774 694.518 120.657C692.336 119.514 689.568 118.942 686.214 118.942H674.561V186.499H657.278ZM747.333 104.825V186.499H730.05V104.825H747.333Z" fill="#090F1D"/>
<path d="M3.89501 45V0.185454H21.5758C24.9748 0.185454 27.8705 0.834623 30.2629 2.13296C32.6554 3.41671 34.4789 5.20375 35.7335 7.49408C37.0026 9.76981 37.6372 12.3957 37.6372 15.3716C37.6372 18.3476 36.9953 20.9735 35.7116 23.2492C34.4278 25.5249 32.5679 27.2974 30.1317 28.5665C27.71 29.8357 24.7778 30.4703 21.3351 30.4703H10.0658V22.8772H19.8033C21.6268 22.8772 23.1294 22.5636 24.311 21.9363C25.5072 21.2944 26.3971 20.4118 26.9806 19.2885C27.5787 18.1507 27.8778 16.845 27.8778 15.3716C27.8778 13.8836 27.5787 12.5853 26.9806 11.4766C26.3971 10.3533 25.5072 9.48535 24.311 8.87265C23.1148 8.24536 21.5976 7.93172 19.7595 7.93172H13.37V45H3.89501ZM58.2611 45.6565C54.8621 45.6565 51.9226 44.9344 49.4426 43.4901C46.9772 42.0313 45.0735 40.0036 43.7314 37.4069C42.3893 34.7956 41.7182 31.7686 41.7182 28.3258C41.7182 24.8539 42.3893 21.8196 43.7314 19.2229C45.0735 16.6116 46.9772 14.5839 49.4426 13.1397C51.9226 11.6809 54.8621 10.9514 58.2611 10.9514C61.6601 10.9514 64.5923 11.6809 67.0577 13.1397C69.5377 14.5839 71.4487 16.6116 72.7908 19.2229C74.1329 21.8196 74.804 24.8539 74.804 28.3258C74.804 31.7686 74.1329 34.7956 72.7908 37.4069C71.4487 40.0036 69.5377 42.0313 67.0577 43.4901C64.5923 44.9344 61.6601 45.6565 58.2611 45.6565ZM58.3049 38.4354C59.8512 38.4354 61.1422 37.9977 62.178 37.1224C63.2137 36.2326 63.9942 35.0218 64.5194 33.49C65.0591 31.9583 65.329 30.215 65.329 28.2602C65.329 26.3054 65.0591 24.5621 64.5194 23.0304C63.9942 21.4986 63.2137 20.2878 62.178 19.3979C61.1422 18.5081 59.8512 18.0631 58.3049 18.0631C56.7439 18.0631 55.431 18.5081 54.3661 19.3979C53.3157 20.2878 52.5207 21.4986 51.9809 23.0304C51.4558 24.5621 51.1932 26.3054 51.1932 28.2602C51.1932 30.215 51.4558 31.9583 51.9809 33.49C52.5207 35.0218 53.3157 36.2326 54.3661 37.1224C55.431 37.9977 56.7439 38.4354 58.3049 38.4354ZM86.6531 45L77.5064 11.3891H86.9376L92.1455 33.9714H92.4519L97.8786 11.3891H107.135L112.649 33.8401H112.934L118.054 11.3891H127.463L118.338 45H108.47L102.693 23.8619H102.277L96.5001 45H86.6531ZM146.911 45.6565C143.454 45.6565 140.478 44.9562 137.983 43.5558C135.503 42.1407 133.592 40.1422 132.25 37.5601C130.908 34.9634 130.237 31.8926 130.237 28.3477C130.237 24.8903 130.908 21.856 132.25 19.2448C133.592 16.6335 135.481 14.5985 137.917 13.1397C140.368 11.6809 143.242 10.9514 146.539 10.9514C148.756 10.9514 150.821 11.3089 152.732 12.0237C154.657 12.7239 156.335 13.7815 157.764 15.1966C159.209 16.6116 160.332 18.3914 161.134 20.5358C161.937 22.6657 162.338 25.1602 162.338 28.0195V30.5797H133.957V24.8028H153.563C153.563 23.4607 153.271 22.2718 152.688 21.236C152.104 20.2003 151.295 19.3906 150.259 18.8071C149.238 18.209 148.049 17.91 146.692 17.91C145.277 17.91 144.023 18.2382 142.928 18.8947C141.849 19.5365 141.003 20.4045 140.39 21.4986C139.777 22.5781 139.464 23.7817 139.449 25.1092V30.6016C139.449 32.2646 139.756 33.7015 140.368 34.9124C140.996 36.1232 141.878 37.0568 143.016 37.7133C144.154 38.3697 145.503 38.698 147.064 38.698C148.1 38.698 149.048 38.5521 149.909 38.2603C150.77 37.9686 151.506 37.5309 152.119 36.9474C152.732 36.3639 153.198 35.649 153.519 34.8029L162.141 35.3719C161.703 37.4434 160.806 39.2523 159.449 40.7986C158.107 42.3304 156.371 43.5266 154.241 44.3873C152.126 45.2334 149.683 45.6565 146.911 45.6565ZM168.421 45V11.3891H177.458V17.2535H177.808C178.421 15.1674 179.45 13.5919 180.894 12.527C182.338 11.4474 184.001 10.9077 185.883 10.9077C186.35 10.9077 186.853 10.9369 187.393 10.9952C187.933 11.0536 188.407 11.1338 188.815 11.2359V19.5074C188.378 19.3761 187.772 19.2594 186.999 19.1572C186.226 19.0551 185.518 19.0041 184.876 19.0041C183.505 19.0041 182.28 19.3031 181.2 19.9012C180.135 20.4848 179.289 21.3017 178.662 22.352C178.049 23.4024 177.743 24.6132 177.743 25.9845V45H168.421ZM207.388 45.6565C203.93 45.6565 200.954 44.9562 198.46 43.5558C195.98 42.1407 194.069 40.1422 192.727 37.5601C191.385 34.9634 190.713 31.8926 190.713 28.3477C190.713 24.8903 191.385 21.856 192.727 19.2448C194.069 16.6335 195.958 14.5985 198.394 13.1397C200.845 11.6809 203.719 10.9514 207.016 10.9514C209.233 10.9514 211.297 11.3089 213.208 12.0237C215.134 12.7239 216.812 13.7815 218.241 15.1966C219.685 16.6116 220.809 18.3914 221.611 20.5358C222.413 22.6657 222.815 25.1602 222.815 28.0195V30.5797H194.433V24.8028H214.04C214.04 23.4607 213.748 22.2718 213.164 21.236C212.581 20.2003 211.771 19.3906 210.736 18.8071C209.714 18.209 208.525 17.91 207.169 17.91C205.754 17.91 204.499 18.2382 203.405 18.8947C202.326 19.5365 201.479 20.4045 200.867 21.4986C200.254 22.5781 199.94 23.7817 199.926 25.1092V30.6016C199.926 32.2646 200.232 33.7015 200.845 34.9124C201.472 36.1232 202.355 37.0568 203.493 37.7133C204.63 38.3697 205.98 38.698 207.541 38.698C208.577 38.698 209.525 38.5521 210.385 38.2603C211.246 37.9686 211.983 37.5309 212.596 36.9474C213.208 36.3639 213.675 35.649 213.996 34.8029L222.618 35.3719C222.18 37.4434 221.283 39.2523 219.926 40.7986C218.584 42.3304 216.848 43.5266 214.718 44.3873C212.603 45.2334 210.159 45.6565 207.388 45.6565ZM241.283 45.5471C238.73 45.5471 236.418 44.8906 234.346 43.5777C232.289 42.2501 230.656 40.3026 229.445 37.7351C228.249 35.1531 227.65 31.9874 227.65 28.2383C227.65 24.3871 228.27 21.185 229.51 18.6321C230.75 16.0646 232.399 14.1462 234.456 12.8771C236.527 11.5933 238.796 10.9514 241.261 10.9514C243.143 10.9514 244.711 11.2724 245.966 11.9143C247.235 12.5415 248.256 13.3293 249.029 14.2775C249.817 15.2112 250.415 16.1302 250.824 17.0347H251.108V0.185454H260.408V45H251.217V39.617H250.824C250.386 40.5506 249.766 41.477 248.964 42.396C248.176 43.3005 247.147 44.0518 245.878 44.6499C244.624 45.248 243.092 45.5471 241.283 45.5471ZM244.237 38.129C245.74 38.129 247.009 37.7206 248.045 36.9036C249.095 36.0721 249.897 34.9124 250.452 33.4244C251.021 31.9364 251.305 30.1931 251.305 28.1945C251.305 26.196 251.028 24.46 250.473 22.9866C249.919 21.5132 249.117 20.3753 248.066 19.573C247.016 18.7707 245.74 18.3695 244.237 18.3695C242.705 18.3695 241.414 18.7852 240.364 19.6168C239.314 20.4483 238.519 21.6007 237.979 23.0741C237.439 24.5475 237.169 26.2543 237.169 28.1945C237.169 30.1493 237.439 31.878 237.979 33.3806C238.533 34.8686 239.328 36.0356 240.364 36.8817C241.414 37.7133 242.705 38.129 244.237 38.129ZM282.509 45V0.185454H291.831V17.0347H292.115C292.524 16.1302 293.114 15.2112 293.888 14.2775C294.675 13.3293 295.696 12.5415 296.951 11.9143C298.22 11.2724 299.796 10.9514 301.678 10.9514C304.128 10.9514 306.39 11.5933 308.461 12.8771C310.533 14.1462 312.188 16.0646 313.428 18.6321C314.668 21.185 315.288 24.3871 315.288 28.2383C315.288 31.9874 314.683 35.1531 313.472 37.7351C312.276 40.3026 310.642 42.2501 308.57 43.5777C306.514 44.8906 304.209 45.5471 301.656 45.5471C299.847 45.5471 298.308 45.248 297.039 44.6499C295.784 44.0518 294.756 43.3005 293.953 42.396C293.151 41.477 292.538 40.5506 292.115 39.617H291.699V45H282.509ZM291.634 28.1945C291.634 30.1931 291.911 31.9364 292.465 33.4244C293.02 34.9124 293.822 36.0721 294.872 36.9036C295.923 37.7206 297.199 38.129 298.702 38.129C300.219 38.129 301.503 37.7133 302.553 36.8817C303.603 36.0356 304.398 34.8686 304.938 33.3806C305.492 31.878 305.77 30.1493 305.77 28.1945C305.77 26.2543 305.5 24.5475 304.96 23.0741C304.42 21.6007 303.625 20.4483 302.575 19.6168C301.524 18.7852 300.233 18.3695 298.702 18.3695C297.184 18.3695 295.901 18.7707 294.85 19.573C293.815 20.3753 293.02 21.5132 292.465 22.9866C291.911 24.46 291.634 26.196 291.634 28.1945ZM326.18 57.6041C324.998 57.6041 323.89 57.5093 322.854 57.3196C321.833 57.1446 320.987 56.9185 320.316 56.6413L322.416 49.6828C323.51 50.0183 324.495 50.2006 325.37 50.2298C326.26 50.259 327.026 50.0548 327.668 49.6171C328.325 49.1795 328.857 48.4355 329.265 47.3851L329.813 45.9628L317.755 11.3891H327.559L334.517 36.0721H334.867L341.891 11.3891H351.76L338.697 48.6324C338.069 50.4413 337.216 52.0169 336.136 53.359C335.072 54.7157 333.722 55.7587 332.088 56.4881C330.454 57.2321 328.485 57.6041 326.18 57.6041Z" fill="black"/>
<defs>
<filter id="filter0_f_13167_22379" x="21.5191" y="-75.9213" width="159.536" height="286.659" filterUnits="userSpaceOnUse" color-interpolation-filters="sRGB">
<feFlood flood-opacity="0" result="BackgroundImageFix"/>
<feBlend mode="normal" in="SourceGraphic" in2="BackgroundImageFix" result="shape"/>
<feGaussianBlur stdDeviation="19.5544" result="effect1_foregroundBlur_13167_22379"/>
</filter>
<filter id="filter1_f_13167_22379" x="-246.49" y="-15.3064" width="376.838" height="299.478" filterUnits="userSpaceOnUse" color-interpolation-filters="sRGB">
<feFlood flood-opacity="0" result="BackgroundImageFix"/>
<feBlend mode="normal" in="SourceGraphic" in2="BackgroundImageFix" result="shape"/>
<feGaussianBlur stdDeviation="29.7694" result="effect1_foregroundBlur_13167_22379"/>
</filter>
<filter id="filter2_f_13167_22379" x="63.9871" y="80.8064" width="145.895" height="262.485" filterUnits="userSpaceOnUse" color-interpolation-filters="sRGB">
<feFlood flood-opacity="0" result="BackgroundImageFix"/>
<feBlend mode="normal" in="SourceGraphic" in2="BackgroundImageFix" result="shape"/>
<feGaussianBlur stdDeviation="17.9054" result="effect1_foregroundBlur_13167_22379"/>
</filter>
<filter id="filter3_f_13167_22379" x="32.1931" y="51.0134" width="183.988" height="126.282" filterUnits="userSpaceOnUse" color-interpolation-filters="sRGB">
<feFlood flood-opacity="0" result="BackgroundImageFix"/>
<feBlend mode="normal" in="SourceGraphic" in2="BackgroundImageFix" result="shape"/>
<feGaussianBlur stdDeviation="17.9054" result="effect1_foregroundBlur_13167_22379"/>
</filter>
<filter id="filter4_f_13167_22379" x="-66.1487" y="138.252" width="254.959" height="140.145" filterUnits="userSpaceOnUse" color-interpolation-filters="sRGB">
<feFlood flood-opacity="0" result="BackgroundImageFix"/>
<feBlend mode="normal" in="SourceGraphic" in2="BackgroundImageFix" result="shape"/>
<feGaussianBlur stdDeviation="17.9054" result="effect1_foregroundBlur_13167_22379"/>
</filter>
<filter id="filter5_f_13167_22379" x="6.48202" y="-75.9252" width="174.571" height="286.659" filterUnits="userSpaceOnUse" color-interpolation-filters="sRGB">
<feFlood flood-opacity="0" result="BackgroundImageFix"/>
<feBlend mode="normal" in="SourceGraphic" in2="BackgroundImageFix" result="shape"/>
<feGaussianBlur stdDeviation="19.5544" result="effect1_foregroundBlur_13167_22379"/>
</filter>
<filter id="filter6_f_13167_22379" x="-246.49" y="-15.6404" width="376.838" height="299.812" filterUnits="userSpaceOnUse" color-interpolation-filters="sRGB">
<feFlood flood-opacity="0" result="BackgroundImageFix"/>
<feBlend mode="normal" in="SourceGraphic" in2="BackgroundImageFix" result="shape"/>
<feGaussianBlur stdDeviation="29.7694" result="effect1_foregroundBlur_13167_22379"/>
</filter>
<filter id="filter7_f_13167_22379" x="50.0339" y="80.7986" width="159.849" height="262.485" filterUnits="userSpaceOnUse" color-interpolation-filters="sRGB">
<feFlood flood-opacity="0" result="BackgroundImageFix"/>
<feBlend mode="normal" in="SourceGraphic" in2="BackgroundImageFix" result="shape"/>
<feGaussianBlur stdDeviation="17.9054" result="effect1_foregroundBlur_13167_22379"/>
</filter>
<filter id="filter8_f_13167_22379" x="32.1921" y="51.0076" width="183.988" height="128.252" filterUnits="userSpaceOnUse" color-interpolation-filters="sRGB">
<feFlood flood-opacity="0" result="BackgroundImageFix"/>
<feBlend mode="normal" in="SourceGraphic" in2="BackgroundImageFix" result="shape"/>
<feGaussianBlur stdDeviation="17.9054" result="effect1_foregroundBlur_13167_22379"/>
</filter>
<filter id="filter9_f_13167_22379" x="-66.1526" y="138.25" width="254.959" height="140.586" filterUnits="userSpaceOnUse" color-interpolation-filters="sRGB">
<feFlood flood-opacity="0" result="BackgroundImageFix"/>
<feBlend mode="normal" in="SourceGraphic" in2="BackgroundImageFix" result="shape"/>
<feGaussianBlur stdDeviation="17.9054" result="effect1_foregroundBlur_13167_22379"/>
</filter>
</defs>
</svg>
